<?xml version="1.0" standalone="no"?>
<!DOCTYPE svg PUBLIC "-//W3C//DTD SVG 1.1//EN" "http://www.w3.org/Graphics/SVG/1.1/DTD/svg11.dtd">
<svg xmlns="http://www.w3.org/2000/svg">
<metadata>Copyright (C) 2018 by original authors @ fontello.com</metadata>
<defs>
<font id="frikadell" horiz-adv-x="1000" >
<font-face font-family="frikadell" font-weight="400" font-stretch="normal" units-per-em="1000" ascent="850" descent="-150" />
<missing-glyph horiz-adv-x="1000" />
<glyph glyph-name="analytics" unicode="&#xe800;" d="M469 725l0-31-344 0 0-563 750 0 0 563-344 0 0 31z m-281-94l625 0 0-437-625 0z m468-81l-22-21-134-134-102 103-23 21-22-21-94-94 45-45 71 71 103-102 22-22 23 22 133 133 40-40 45 45-62 63z m-250-450l-62-125 62 0 63 125z m125 0l63-125 62 0-62 125z" horiz-adv-x="1000" />

<glyph glyph-name="burger" unicode="&#xe801;" d="M344 694c-103 0-188-85-188-188l0-8-35-46c11-9 23-14 35-18l0-77c-19-17-31-42-31-69 0-28 12-53 31-70l0-87c0-34 29-62 63-62l562 0c34 0 63 28 63 62l0 87c19 17 31 42 31 70 0 27-12 52-31 69l0 77c12 4 24 9 35 18l-35 47 0 7c0 103-85 188-188 188z m0-63l31 0c0-17 14-31 31-31 18 0 32 14 32 31l218 0c70 0 125-55 125-125l0-15c-8 2-15 6-22 11l-17 12-18-11-24-13c-22-13-48-13-70 0l-24 13-14 9-16-7-45-23c-19-10-42-10-61 0l-46 23-16 7-14-9-24-13c-22-13-48-13-70 0l-24 13-18 11-17-12c-7-5-14-9-22-11l0 15c0 70 55 125 125 125z m0-31c-17 0-31-14-31-31 0-17 14-31 31-31 17 0 31 14 31 31 0 17-14 31-31 31z m125 0c-17 0-31-14-31-31 0-17 14-31 31-31 17 0 31 14 31 31 0 17-14 31-31 31z m-214-156l13-8c41-25 93-25 134 0l9 6 30-16c37-18 81-18 118 0l30 16 9-6c41-25 93-25 134 0l13 8c12-6 24-9 36-12l0-51-562 0 0 51c12 3 24 6 36 12z m-36-125l562 0c18 0 32-14 32-31 0-18-14-32-32-32l-562 0c-18 0-31 14-31 32 0 17 13 31 31 31z m0-125l562 0 0-63-562 0z" horiz-adv-x="1000" />

<glyph glyph-name="check" unicode="&#xe802;" d="M884 654l-540-540-228 227-45-45 250-250 23-21 22 21 563 563z" horiz-adv-x="1000" />

<glyph glyph-name="clock" unicode="&#xe803;" d="M500 725c-207 0-375-168-375-375 0-207 168-375 375-375 207 0 375 168 375 375 0 207-168 375-375 375z m0-62c173 0 313-140 313-313 0-173-140-312-313-312-173 0-312 139-312 312 0 173 139 313 312 313z m-31-63l0-281 219 0 0 62-157 0 0 219z" horiz-adv-x="1000" />

<glyph glyph-name="close" unicode="&#xe804;" d="M226 669l-45-45 274-274-274-274 45-45 274 274 274-274 45 45-274 274 274 274-45 45-274-274z" horiz-adv-x="1000" />

<glyph glyph-name="coupon" unicode="&#xe805;" d="M63 631l0-218 31 0c37 0 62-26 62-63 0-37-25-62-62-62l-31 0 0-219 875 0 0 219-32 0c-37 0-62 25-62 62 0 37 25 63 62 63l32 0 0 218z m62-62l750 0 0-100c-54-14-94-61-94-119 0-58 40-105 94-119l0-100-750 0 0 100c54 14 94 61 94 119 0 58-40 105-94 119z" horiz-adv-x="1000" />

<glyph glyph-name="delivery" unicode="&#xe806;" d="M703 663c-20 0-37-13-44-32l-128 0 0-62 133 0 10-31-111 0c-82 0-123-44-138-63l-106 0c-12 7-55 31-116 31-67 0-123-26-123-26l27-57c0 0 45 21 96 21 25 0 49-8 67-15l-28-56c-17 5-36 8-54 8-104 0-188-84-188-187 0-104 84-188 188-188 92 0 169 68 184 157l109 0c23 0 46 13 56 35l-1 0 34 69c52 24 95 65 124 105 9 10 16 20 22 30l66-217 61 18-35 115c1 0 3 1 5 1 69 0 125-56 125-125 0-69-56-125-125-125-69 0-125 56-125 125 0 33 12 63 34 86l-20 65c-46-34-77-89-77-151 0-104 84-188 188-188 103 0 187 84 187 188 0 103-84 187-187 187-9 0-17-1-25-2l-57 190 50 0 0 94z m-140-188l125 0c-5-8-19-33-43-65-29-38-70-79-109-93l-13-4-4-12-38-76-293 0 0-62 120 0c-14-54-62-94-120-94-69 0-125 56-125 125 0 69 56 125 125 125 46 0 85-25 107-63l69 0c-12 36-36 67-66 89l34 68 122 0 10 13c0 0 30 49 99 49z" horiz-adv-x="1000" />

<glyph glyph-name="food-menu" unicode="&#xe807;" d="M219 756l0-812 562 0 0 812z m62-62l438 0 0-688-438 0z m63-94l0-62 62 0 0 62z m125 0l0-62 187 0 0 62z m-94-94c-17 0-31-14-31-31 0-17 14-31 31-31 17 0 31 14 31 31 0 17-14 31-31 31z m94 0l0-62 187 0 0 62z m-125-156l0-62 62 0 0 62z m125 0l0-62 187 0 0 62z m-94-94c-17 0-31-14-31-31 0-17 14-31 31-31 17 0 31 14 31 31 0 17-14 31-31 31z m94 0l0-62 187 0 0 62z m-125-93l0-63 62 0 0 63z m125 0l0-63 187 0 0 63z" horiz-adv-x="1000" />

<glyph glyph-name="home" unicode="&#xe808;" d="M500 769l-22-21-407-407 45-45 40 40 0-361 282 0 0 313 125 0 0-313 281 0 0 361 40-40 45 45-406 407z m0-89l281-281 0-361-156 0 0 312-250 0 0-312-156 0 0 361z" horiz-adv-x="1000" />

<glyph glyph-name="inventory" unicode="&#xe809;" d="M581 798l-29-10-173-64-29-11 10-29 53-143 11-29 29 11 173 63 29 11-10 29-53 143z m-312-42l-30-10-83-31 21-58 54 19 209-555 10-30 30 11 332 125-22 59-303-115-208 556z m275-38l31-84-114-42-31 84z m137-178l-30-10-172-64-30-10 11-30 53-142 10-30 30 11 173 64 29 10-11 31-53 141z m-37-80l31-84-114-42-32 84z m-300-266c-52 0-94-43-94-94 0-51 42-94 94-94 51 0 94 43 94 94 0 51-43 94-94 94z m0-188l-188 0 0-62 688 0 0 62z m0 125c17 0 31-13 31-31 0-18-14-31-31-31-18 0-31 13-31 31 0 18 13 31 31 31z" horiz-adv-x="1000" />

<glyph glyph-name="language" unicode="&#xe80a;" d="M94 694l0-563 156 0 0-159 51 41 147 118 458 0 0 563z m62-63l688 0 0-437-417 0-9-7-105-84 0 91-157 0z m132-62l-7-22-60-187-2-5 0-36 62 0 0 27 1 4 61 0 1-4 0-27 62 0 0 36-2 5-60 187-7 22z m337-63l0-31-94 0 0-62 139 0c-5-9-11-19-19-29-2-3-5-6-7-9-16 14-27 27-27 27l-47-41c0 0 10-11 26-26-19-9-40-16-65-16l0-63c46 0 85 16 116 37 28-19 63-37 103-37l0 63c-16 0-37 8-57 19 3 3 6 6 8 9 20 26 31 49 38 66l42 0 0 62-93 0 0 31z m-312-64l9-29-19 0z" horiz-adv-x="1000" />

<glyph glyph-name="location" unicode="&#xe80b;" d="M500 756c-155 0-281-126-281-281 0-44 18-94 42-149 24-55 55-114 87-168 63-109 127-201 127-201l25-37 25 37c0 0 64 92 127 201 32 54 63 113 87 168 24 55 42 105 42 149 0 155-126 281-281 281z m0-62c121 0 219-98 219-219 0-25-14-72-36-124-23-52-54-109-85-162-49-85-80-130-98-156-18 26-49 71-98 156-30 53-62 110-85 162-22 52-36 99-36 124 0 121 98 219 219 219z m0-156c-34 0-62-28-62-63 0-34 28-62 62-62 35 0 63 28 63 62 0 35-28 63-63 63z" horiz-adv-x="1000" />

<glyph glyph-name="logout" unicode="&#xe80c;" d="M469 725l0-375 62 0 0 375z m-94-21c-145-52-250-191-250-354 0-207 168-375 375-375 207 0 375 168 375 375 0 163-105 302-250 354l0-68c110-48 188-158 188-286 0-172-141-312-313-312-172 0-312 140-312 312 0 128 77 238 187 286z" horiz-adv-x="1000" />

<glyph glyph-name="message" unicode="&#xe80d;" d="M94 600l0-562 812 0 0 562z m135-62l543 0-272-181z m-73-28l326-218 18-10 18 10 326 218 0-410-688 0z" horiz-adv-x="1000" />

<glyph glyph-name="notification" unicode="&#xe80e;" d="M500 756c-34 0-62-28-62-62 0-3 0-5 1-8-109-28-189-126-189-242l0-281c0-18-13-32-31-32l-31 0 0-62 224 0c-3-10-6-20-6-31 0-52 43-94 94-94 51 0 94 42 94 94 0 11-3 21-6 31l225 0 0 62-32 0c-17 0-31 14-31 32l0 272c0 117-78 222-188 251 0 3 1 5 1 8 0 34-28 62-63 62z m-14-125c5 1 9 0 14 0 2 0 4 0 6 0 102-3 182-92 182-196l0-272c0-11 2-22 5-32l-386 0c3 10 6 21 6 32l0 281c0 99 76 180 173 187z m14-562c18 0 31-14 31-31 0-18-13-32-31-32-18 0-31 14-31 32 0 17 13 31 31 31z" horiz-adv-x="1000" />

<glyph glyph-name="order-1" unicode="&#xe80f;" d="M297 725c-77 0-141-63-141-141 0-77 64-140 141-140 77 0 141 63 141 140 0 78-64 141-141 141z m0-62c43 0 78-35 78-79 0-43-35-78-78-78-44 0-78 35-78 78 0 44 34 79 78 79z m391 0l0-94 93 0 0 94z m-63-125l0-63 219 0 0 63z m-31-94l0-63 281 0 0 63z m-469-31l0-63 70 0 69-227 7-23 52 0 7 23 68 227 56 0 90-145 21-35 27 28 93 90 128 0 0 62-154 0-9-9-74-71-78 128-9 15-137 0-7-23-48-161-48 161-7 23z m313-133l0-242-313 0 0-63 375 0 0 199z" horiz-adv-x="1000" />

<glyph glyph-name="password" unicode="&#xe810;" d="M500 756c-120 0-219-98-219-218l0-94-93 0 0-500 625 0 0 500-94 0 0 94c0 120-98 218-219 218z m0-62c87 0 156-70 156-156l0-94-312 0 0 94c0 86 69 156 156 156z m-250-313l500 0 0-375-500 0z m125-156c-17 0-31-14-31-31 0-17 14-31 31-31 17 0 31 14 31 31 0 17-14 31-31 31z m125 0c-17 0-31-14-31-31 0-17 14-31 31-31 17 0 31 14 31 31 0 17-14 31-31 31z m125 0c-17 0-31-14-31-31 0-17 14-31 31-31 17 0 31 14 31 31 0 17-14 31-31 31z" horiz-adv-x="1000" />

<glyph glyph-name="report" unicode="&#xe811;" d="M188 756l0-812 625 0 0 606-206 206z m62-62l313 0 0-188 187 0 0-500-500 0z m375-44l81-81-81 0z m9-221l-134-156-107 125-104-121 47-41 57 66 107-125 134 156 30-35 47 41z" horiz-adv-x="1000" />

<glyph glyph-name="search" unicode="&#xe812;" d="M594 756c-172 0-313-140-313-312 0-75 27-144 71-197l-249-250 45-45 249 250c53-44 122-71 197-71 172 0 312 141 312 313 0 172-140 312-312 312z m0-62c138 0 250-112 250-250 0-139-112-250-250-250-139 0-250 111-250 250 0 138 111 250 250 250z" horiz-adv-x="1000" />

<glyph glyph-name="setting" unicode="&#xe813;" d="M412 756l-5-25-18-93c-30-12-57-28-81-48l-91 32-25 7-12-22-63-108-12-22 18-17 70-61c-2-16-5-32-5-49 0-17 3-33 5-49l-70-61-18-17 12-22 63-108 12-22 25 8 91 31c24-20 51-36 81-48l18-93 5-25 176 0 5 25 18 93c30 12 57 28 81 48l91-31 25-8 12 22 63 108 13 22-19 17-70 61c2 16 6 32 6 49 0 17-4 33-6 49l70 61 19 17-13 22-63 108-12 22-25-7-91-32c-24 20-51 36-81 48l-18 93-5 25z m51-62l74 0 16-81 4-19 17-6c36-11 68-30 95-54l14-13 17 6 79 27 37-63-62-56-15-12 5-18c4-18 6-36 6-55 0-19-2-37-6-55l-4-18 14-12 62-56-37-63-79 27-17 6-14-13c-27-24-59-43-95-54l-17-6-4-19-16-81-74 0-16 81-4 19-17 6c-36 11-68 30-95 54l-14 13-17-6-79-27-37 63 62 56 15 12-5 18c-4 18-6 36-6 55 0 19 2 37 6 55l5 18-15 12-62 56 37 63 79-27 17-6 14 13c27 24 59 43 95 54l17 6 4 19z m37-188c-86 0-156-70-156-156 0-86 70-156 156-156 86 0 156 70 156 156 0 86-70 156-156 156z m0-62c52 0 94-42 94-94 0-52-42-94-94-94-52 0-94 42-94 94 0 52 42 94 94 94z" horiz-adv-x="1000" />

<glyph glyph-name="user" unicode="&#xe814;" d="M500 725c-120 0-219-98-219-219 0-75 38-141 96-180-112-48-189-159-189-288l62 0c0 139 111 250 250 250 140 0 250-111 250-250l63 0c0 129-78 240-190 288 58 39 96 105 96 180 0 121-98 219-219 219z m0-62c87 0 156-70 156-157 0-86-69-156-156-156-87 0-156 70-156 156 0 87 69 157 156 157z" horiz-adv-x="1000" />

<glyph glyph-name="users" unicode="&#xe815;" d="M313 631c-87 0-157-70-157-156 0-86 70-156 157-156 86 0 156 70 156 156 0 86-70 156-156 156z m0-312c-155 0-282-126-282-281l563 0c0 30-6 60-15 87 3 7 7 14 11 21 30 48 83 79 144 79 96 0 172-76 172-172l0-15 63 0 0 15c0 91-52 170-128 209 40 32 65 80 65 135 0 95-77 172-172 172-94 0-171-77-171-172 0-55 26-104 66-136-32-16-60-39-82-68-50 76-137 126-234 126z m421 187c61 0 110-48 110-109 0-61-49-109-110-109-60 0-109 48-109 109 0 61 49 109 109 109z" horiz-adv-x="1000" />

<glyph glyph-name="meat" unicode="&#xe816;" d="M511 725c-41 0-77-14-104-36-27-22-46-52-60-84-29-63-40-138-50-196-17-71-55-113-92-153-19-19-37-38-53-59-15-22-27-48-27-77 0-45 31-83 74-107 44-24 102-38 170-38 115 0 238 38 335 100 97 61 171 148 171 248 0 65-45 134-136 186-11 83-40 141-82 174-45 35-99 42-146 42z m0-62c41 0 78-7 107-30 29-22 54-63 63-146l2-17 14-8c87-46 116-102 116-139 0-68-56-141-142-196-86-54-201-89-302-89-59 0-107 12-138 30-32 17-43 37-43 52 0 13 4 25 15 41 11 15 28 32 47 52 39 41 87 95 107 181l1 1 0 1c11 60 23 131 46 184 12 26 26 47 43 61 17 14 36 22 64 22z m10-94c-18 1-37-13-46-35-13-33-4-70 18-84 22-15 51 0 64 29 12 33 3 69-19 84-5 4-11 6-17 6z m97-185l-236-88 22-58 236 88z m70-101l-325-120 22-59 324 120z" horiz-adv-x="1000" />

<glyph glyph-name="category" unicode="&#xe817;" d="M125 725l0-344 344 0 0 344z m406 0l0-344 344 0 0 344z m63-62l219 0 0-219-219 0z m-469-344l0-344 344 0 0 344z m406 0l0-344 344 0 0 344z m-343-63l218 0 0-218-218 0z m406 0l17 0-17-17z m107 0l67 0-174-174 0 67z m-451-31c-17 0-31-14-31-31 0-17 14-31 31-31 17 0 31 14 31 31 0 17-14 31-31 31z m94 0c-17 0-31-14-31-31 0-17 14-31 31-31 17 0 31 14 31 31 0 17-14 31-31 31z m469-14l0-66-108-107-66 0z m-563-80c-17 0-31-14-31-31 0-17 14-31 31-31 17 0 31 14 31 31 0 17-14 31-31 31z m94 0c-17 0-31-14-31-31 0-17 14-31 31-31 17 0 31 14 31 31 0 17-14 31-31 31z m469-76l0-17-18 0z" horiz-adv-x="1000" />

<glyph glyph-name="edit" unicode="&#xe818;" d="M747 726c-33 0-65-13-91-38l-494-494-2-10-34-172-10-46 46 10 172 34 10 2 494 494c51 51 51 131 0 182-25 25-58 38-91 38z m0-60c16 0 32-7 47-22 30-30 30-63 0-94l-22-21-93 93 21 22c16 15 31 22 47 22z m-112-88l93-93-378-378c-21 40-53 72-93 93z m-418-429c37-15 67-45 82-82l-103-21z" horiz-adv-x="1000" />

<glyph glyph-name="trash" unicode="&#xe819;" d="M469 725c-17 0-33-6-45-18-12-11-18-28-18-44l0-32-187 0 0-62 31 0 0-500c0-52 42-94 94-94l375 0c51 0 94 42 94 94l0 500 31 0 0 62-188 0 0 32c0 16-5 33-17 44-12 12-29 18-45 18z m0-62l125 0 0-32-125 0z m-156-94l437 0 0-500c0-18-14-31-31-31l-375 0c-18 0-31 13-31 31z m62-94l0-344 63 0 0 344z m125 0l0-344 63 0 0 344z m125 0l0-344 63 0 0 344z" horiz-adv-x="1000" />

<glyph glyph-name="plus" unicode="&#xe81a;" d="M469 694l0-313-313 0 0-62 313 0 0-313 62 0 0 313 313 0 0 62-313 0 0 313z" horiz-adv-x="1000" />

<glyph glyph-name="print" unicode="&#xe81b;" d="M281 725l0-219-62 0c-52 0-94-42-94-93l0-313 156 0 0-125 438 0 0 125 156 0 0 313c0 51-42 93-94 93l-62 0 0 219z m63-62l312 0 0-157-312 0z m-125-219l562 0c18 0 32-14 32-31l0-250-94 0 0 125-438 0 0-125-93 0 0 250c0 17 13 31 31 31z m31-31c-17 0-31-14-31-32 0-17 14-31 31-31 17 0 31 14 31 31 0 18-14 32-31 32z m94-188l312 0 0-187-312 0z" horiz-adv-x="1000" />

<glyph glyph-name="receipt" unicode="&#xe81c;" d="M219 682l0-238-125 0 0-438 812 0 0 438-125 0 0 238-93-47-63 31-62-31-63 31-62-31-63 31-62-31z m156-86l63-31 62 31 63-31 62 31 63-31 31 16 0-262-438 0 0 262 32-16z m-219-215l63 0 0-125 562 0 0 125 63 0 0-312-688 0z m125-187l0-63 63 0 0 63z m125 0l0-63 63 0 0 63z m125 0l0-63 63 0 0 63z m125 0l0-63 63 0 0 63z" horiz-adv-x="1000" />

<glyph glyph-name="undo" unicode="&#xe81d;" d="M399 685l-250-250-21-22 21-23 250-250 45 45-196 196 408 0c86 0 157-70 157-156l0-219 62 0 0 219c0 120-99 219-219 219l-408 0 196 196z" horiz-adv-x="1000" />

<glyph glyph-name="grid" unicode="&#xe81e;" d="M156 694l0-688 688 0 0 688z m63-63l250 0 0-250-250 0z m312 0l250 0 0-250-250 0z m-312-312l250 0 0-250-250 0z m312 0l250 0 0-250-250 0z" horiz-adv-x="1000" />

<glyph glyph-name="list" unicode="&#xe81f;" d="M188 694c-35 0-63-28-63-63 0-34 28-62 63-62 34 0 62 28 62 62 0 35-28 63-62 63z m156-31l0-63 531 0 0 63z m-156-250c-35 0-63-28-63-63 0-34 28-62 63-62 34 0 62 28 62 62 0 35-28 63-62 63z m156-32l0-62 531 0 0 62z m-156-250c-35 0-63-28-63-62 0-35 28-63 63-63 34 0 62 28 62 63 0 34-28 62-62 62z m156-31l0-62 531 0 0 62z" horiz-adv-x="1000" />

<glyph glyph-name="down" unicode="&#xe820;" d="M132 513l-45-45 391-390 22-22 23 22 390 390-45 45-368-368z" horiz-adv-x="1000" />

<glyph glyph-name="happy" unicode="&#xe821;" d="M500 725c-207 0-375-168-375-375 0-207 168-375 375-375 207 0 375 168 375 375 0 207-168 375-375 375z m0-62c173 0 313-140 313-313 0-173-140-312-313-312-173 0-312 139-312 312 0 173 139 313 312 313z m-141-188c-25 0-46-21-46-47 0-26 21-47 46-47 26 0 47 21 47 47 0 26-21 47-47 47z m282 0c-26 0-47-21-47-47 0-26 21-47 47-47 26 0 47 21 47 47 0 26-21 47-47 47z m-303-219l-54-31c43-75 124-125 216-125 92 0 173 50 216 125l-54 31c-32-56-92-93-162-93-70 0-130 37-162 93z" horiz-adv-x="1000" />

<glyph glyph-name="sad" unicode="&#xe822;" d="M500 725c-207 0-375-168-375-375 0-207 168-375 375-375 207 0 375 168 375 375 0 207-168 375-375 375z m0-62c173 0 313-140 313-313 0-173-140-312-313-312-173 0-312 139-312 312 0 173 139 313 312 313z m-141-188c-25 0-46-21-46-47 0-26 21-47 46-47 26 0 47 21 47 47 0 26-21 47-47 47z m282 0c-26 0-47-21-47-47 0-26 21-47 47-47 26 0 47 21 47 47 0 26-21 47-47 47z m-141-187c-83 0-157-42-202-105l51-36c34 47 88 78 151 78 63 0 117-31 151-78l51 36c-45 63-119 105-202 105z" horiz-adv-x="1000" />

<glyph glyph-name="poker" unicode="&#xe823;" d="M500 725c-207 0-375-168-375-375 0-207 168-375 375-375 207 0 375 168 375 375 0 207-168 375-375 375z m0-62c173 0 313-140 313-313 0-173-140-312-313-312-173 0-312 139-312 312 0 173 139 313 312 313z m-141-188c-25 0-46-21-46-47 0-26 21-47 46-47 26 0 47 21 47 47 0 26-21 47-47 47z m282 0c-26 0-47-21-47-47 0-26 21-47 47-47 26 0 47 21 47 47 0 26-21 47-47 47z m-297-250l0-62 312 0 0 62z" horiz-adv-x="1000" />

<glyph glyph-name="time" unicode="&#xe824;" d="M500 725c-207 0-375-168-375-375 0-207 168-375 375-375 207 0 375 168 375 375 0 207-168 375-375 375z m0-62c173 0 313-140 313-313 0-173-140-312-313-312-173 0-312 139-312 312 0 173 139 313 312 313z m-31-63l0-281 219 0 0 62-157 0 0 219z" horiz-adv-x="1000" />

<glyph glyph-name="reset-1" unicode="&#xe825;" d="M500 756c-224 0-406-182-406-406 0-224 182-406 406-406 224 0 406 182 406 406l-62 0c0-190-154-344-344-344-190 0-344 154-344 344 0 190 154 344 344 344 121 0 227-62 288-156l-163 0 0-63 250 0 0 250-62 0 0-116c-75 90-187 147-313 147z" horiz-adv-x="1000" />

<glyph glyph-name="ready" unicode="&#xe826;" d="M406 663l0-63 188 0 0 63z m94-94c-197 0-357-151-373-344l-64 0 0-156 875 0 0 156-65 0c-16 193-176 344-373 344z m0-63c163 0 295-122 311-281l-621 0c15 159 147 281 310 281z m-375-343l750 0 0-32-750 0z" horiz-adv-x="1000" />

<glyph glyph-name="waste" unicode="&#xe827;" d="M641 725c-60 0-110-49-110-109 0-60 50-110 110-110 60 0 109 50 109 110 0 60-49 109-109 109z m0-62c26 0 47-21 47-47 0-27-21-47-47-47-27 0-47 20-47 47 0 26 20 47 47 47z m-21-188c-47 0-90-27-111-69l-28-56-106 0 0-62 145 0 8 17 36 71 1 2c10 22 31 35 55 35l36 0c35 0 63-28 63-63l0-126-45-22-18-8 0-219 63 0 0 180 62 31 0 164c0 69-56 125-125 125z m-292-187l-47-47 47-47 47 47z m-134-63l28-250 213 0 27 250-63 0-21-187-100 0-21 187z m369-31l0-219 62 0 0 219z m-235-31l-47-47 47-47 47 47z" horiz-adv-x="1000" />

<glyph glyph-name="tomato" unicode="&#xe828;" d="M573 757c0 0-28-7-53-31-19-18-39-45-47-83-58 49-132-23-160 51 0-125 98-88 156-88-105-21-104-83-188-100 142-75 179 4 208 81-4-30-39-122 74-174 32 89-8 129-39 182 49-62 108-177 226-89-69 18-72 75-158 90 64-3 83-20 127 67-70-36-102 43-185-40 0-1-1 0-1 0 5 29 17 46 29 57 14 14 27 17 27 17z m-283-120c-33-8-66-20-95-42-67-50-101-133-101-245 0-190 90-298 186-351 96-52 194-55 220-55 26 0 124 3 220 55 96 53 186 161 186 351 0 112-34 195-101 245-22 16-45 27-69 35-12-23-25-40-41-51 1-1 2-2 2-2 25-7 49-17 71-33 50-37 76-103 76-194 0-171-74-252-154-296-81-44-170-48-190-48-20 0-109 4-189 48-81 44-155 125-155 296 0 91 26 157 76 194 31 23 67 34 103 38-24 13-37 33-45 55z" horiz-adv-x="1000" />

<glyph glyph-name="menu" unicode="&#xe829;" d="M125 631l0-62 750 0 0 62z m0-250l0-62 750 0 0 62z m0-250l0-62 750 0 0 62z" horiz-adv-x="1000" />

<glyph glyph-name="back" unicode="&#xe82a;" d="M595 716l-344-343-21-23 21-22 344-344 45 45-322 321 322 321z" horiz-adv-x="1000" />

<glyph glyph-name="alert" unicode="&#xe82b;" d="M500 749l-27-46-375-650-27-47 858 0-27 47-375 650z m0-125l320-555-640 0z m-31-211l0-188 62 0 0 188z m0-219l0-63 62 0 0 63z" horiz-adv-x="1000" />

<glyph glyph-name="take-away" unicode="&#xe82c;" d="M500 756c-86 0-156-70-156-156l0-31-154 0-2-29-32-563-2-33 692 0-2 33-31 563-2 29-155 0 0 31c0 86-70 156-156 156z m0-62c52 0 94-42 94-94l0-31-188 0 0 31c0 52 42 94 94 94z m-252-188l96 0 0-93 62 0 0 93 188 0 0-93 62 0 0 93 96 0 27-500-558 0z" horiz-adv-x="1000" />

<glyph glyph-name="fries" unicode="&#xe82d;" d="M287 694l6-63-105 0 0-31 28-156 56 0-16 125 44 0 13-125 56 0-13 187 50 0 0-243c0-33 38-56 63-59l0 271 62 0 0-271c25 3 63 26 63 59l0 243 50 0-13-187 57 0 12 125 44 0-15-125 55 0 29 156 0 31-106 0 6 63-182 0 0-31-62 0 0 31z m-104-281l5-36 45-321c7-46 47-81 93-81l351 0c47 0 86 35 93 81l43 321 4 36-192 0 0-32c0-48-51-93-125-93-74 0-125 45-125 93l0 32z m72-63l65 0c18-73 92-125 180-125 88 0 162 52 180 125l65 0-38-285c-2-16-14-27-30-27l-351 0c-16 0-29 11-31 27z" horiz-adv-x="1000" />

<glyph glyph-name="drink" unicode="&#xe82e;" d="M313 725l0-62c0-9-11-29-26-50-7-11-15-21-22-32-7-12-15-25-15-43l0-454c0-24 14-47 35-62 1-5 0-7 4-15 8-15 29-32 55-32l312 0c26 0 47 17 55 32 4 8 3 10 4 15 21 15 35 38 35 62l0 454c0 18-7 31-14 43-7 11-15 22-23 33-15 21-25 43-25 49l0 62z m62-62l250 0c0-37 21-63 37-85 3-4 4-6 6-9l-230 0 0-63 250 0 0-375-250 0 0-62 218 0 0-31-312 0c0 0 0 1 0 1l0 30 31 0 0 62-62 0 0 375 62 0 0 63-43 0c2 3 4 5 6 8 16 22 37 49 37 86z" horiz-adv-x="1000" />

<glyph glyph-name="salad" unicode="&#xe82f;" d="M344 725c0-32 0-64 6-98-8-4-17-10-26-18-21-20-43-55-43-104 0-45 15-82 37-110 23-28 54-46 83-59 60-26 126-36 145-46l7-2 31 0 10 12c0 0 62 89 62 219 0 71-21 118-50 145-30 26-62 30-80 30-37 0-63-19-85-29l24-57c28 12 50 23 61 23 7 0 23-2 38-14 14-13 30-38 30-98 0-92-31-146-43-165-39 14-84 22-125 40-25 11-45 24-59 41-14 17-23 38-23 70 0 31 12 47 23 58 1 1 1 0 2 1 17-36 45-72 90-108l38 49c-49 39-69 73-80 107-11 34-11 70-11 113z m358-241c-1-23-2-45-5-65 73-19 116-47 116-69 0-37-125-94-313-94-188 0-312 57-312 94 0 17 25 38 71 56-10 17-17 37-21 59-68-26-113-65-113-115 0-87 31-159 63-211 31-52 67-85 71-89 36-36 114-75 241-75 127 0 202 40 240 74 9 8 41 38 73 90 31 52 62 124 62 211 0 64-73 109-173 134z m-498-234c72-37 184-56 296-56 112 0 225 19 297 56-10-29-24-55-37-78-28-44-58-74-62-77-25-23-84-57-198-57-114 0-179 38-197 56-8 8-34 34-62 78-13 22-27 49-37 78z" horiz-adv-x="1000" />

<glyph glyph-name="cart" unicode="&#xe830;" d="M156 631c-17 0-31-14-31-31 0-17 14-31 31-31l70 0 82-328c7-28 32-47 60-47l359 0c28 0 52 18 59 46l81 298-523 0 15-63 427 0-59-219-359 0-82 328c-7 28-32 47-60 47z m532-437c-52 0-94-43-94-94 0-51 42-94 94-94 51 0 93 43 93 94 0 51-42 94-93 94z m-282 0c-51 0-93-43-93-94 0-51 42-94 93-94 52 0 94 43 94 94 0 51-42 94-94 94z m0-63c18 0 32-13 32-31 0-18-14-31-32-31-17 0-31 13-31 31 0 18 14 31 31 31z m282 0c17 0 31-13 31-31 0-18-14-31-31-31-18 0-32 13-32 31 0 18 14 31 32 31z" horiz-adv-x="1000" />

<glyph glyph-name="right" unicode="&#xe831;" d="M405 716l-45-45 322-321-322-321 45-45 344 344 22 22-22 23z" horiz-adv-x="1000" />

<glyph glyph-name="plus-circle" unicode="&#xe832;" d="M500 756c-224 0-406-182-406-406 0-224 182-406 406-406 224 0 406 182 406 406 0 224-182 406-406 406z m0-62c190 0 344-154 344-344 0-190-154-344-344-344-190 0-344 154-344 344 0 190 154 344 344 344z m-31-156l0-157-156 0 0-62 156 0 0-156 62 0 0 156 157 0 0 62-157 0 0 157z" horiz-adv-x="1000" />

<glyph glyph-name="minus-circle" unicode="&#xe833;" d="M500 756c-224 0-406-182-406-406 0-224 182-406 406-406 224 0 406 182 406 406 0 224-182 406-406 406z m0-62c190 0 344-154 344-344 0-190-154-344-344-344-190 0-344 154-344 344 0 190 154 344 344 344z m-187-313l0-62 375 0 0 62z" horiz-adv-x="1000" />

<glyph glyph-name="dining" unicode="&#xe834;" d="M700 725l-144-144c-36-36-36-95 0-131l-56-55-274 274-23 22-22-22c-56-55-56-145 0-201l196-196-243-243 45-45 243 243 37-36 22-23 22 23 56 56 262-263 45 45-285 284-36 37 55 56 1 0 1-1c36-35 94-35 129 1l3 4 141 140-44 44-143-143c-14-14-30-14-43-1l165 166-44 44-166-165c-13 13-13 29 1 43l143 143z m-488-132l303-303-34-33-255 256c-24 23-24 53-14 80z" horiz-adv-x="1000" />

<glyph glyph-name="moto" unicode="&#xe835;" d="M672 694c-21 0-38-13-44-31l-128 0 0-63 110 0c35-38 61-79 80-117 2-20-2-40-14-64-14-27-37-56-61-82-45-47-90-77-95-81l-82 0c-14 0-23 4-27 6-3 3-5 2-5 11 0 19 11 37 26 58 15 22 37 45 37 82l-1 0c0 2 1 5 1 8 0 38-30 69-68 72l-200 10-1 0c-40 2-75-30-75-71l0-11c0-14 5-27 12-38-9-9-21-18-33-30-33-30-73-74-73-141l0-19 19-9c0 0 11-5 20-9-5-13-7-28-7-44 0-68 56-125 125-125 59 0 110 43 122 99 19-3 38-5 56-5l175 0c36 0 71 14 99 37 2 1 21 6 50 13-1-6-2-12-2-19 0-68 56-125 125-125 68 0 125 57 125 125 0 18-4 36-11 51 3 0 7 0 11 0l31 0 0 51-3 7c-13 26-38 50-70 71-26 17-56 32-88 37-7 30-23 87-57 155 0 3 0 5-1 7l-2-1c-15 30-33 61-56 91l58 0 0 94z m-475-253l201-11 0 0c5 0 8-4 8-9 0-5-3-8-8-8l-202 0c-5 0-8 3-8 8l0 11c0 6 4 9 9 9z m534-52c10-31 14-54 15-61l-142-140c-17-16-40-25-63-25l-175 0c-22 0-48 3-75 8-4 1-8 1-12 2-33 8-68 18-99 29-21 6-34 11-46 16-1 1-2 1-3 1-2 1-4 2-6 3-1 0-2 0-3 0-9 4-16 8-22 11 6 30 23 52 47 74 14 14 30 26 44 42 1 0 1 1 1 1 2 0 3 0 4 0l173 0c-13-20-25-46-25-77 0-25 12-50 31-63 19-13 41-16 63-16l93 0c7 0 13 1 18 5 0 0 57 39 111 95 27 28 52 60 71 95z m62-102c22-3 46-14 67-28 11-7 13-13 21-20-2 0-3 0-5 0-5 2-10 2-15 2-5-1-10-2-14-5-43-4-79-9-113-15-2 0-4-1-5-2-2 0-4-1-5-1z m61-109c13-11 21-28 21-47 0-35-28-62-62-62-35 0-63 27-63 62 0 13 4 25 11 35 27 5 59 9 93 12z m-725-25c11-4 18-7 30-11 28-9 58-18 89-25-6-28-31-48-60-48-35 0-63 27-63 62 0 8 2 15 4 22z" horiz-adv-x="1000" />

<glyph glyph-name="check-circle" unicode="&#xe836;" d="M500 756c-224 0-406-182-406-406 0-224 182-406 406-406 224 0 406 182 406 406 0 224-182 406-406 406z m0-62c190 0 344-154 344-344 0-190-154-344-344-344-190 0-344 154-344 344 0 190 154 344 344 344z m196-196l-227-228-134 134-45-45 156-156 23-22 22 22 250 250z" horiz-adv-x="1000" />

<glyph glyph-name="headset" unicode="&#xe837;" d="M500 756c-189 0-344-154-344-343l0-188c0-40 27-75 63-88l0-6c0-86 70-156 156-156l40 0c11-19 31-31 54-31l62 0c35 0 63 28 63 62 0 35-28 63-63 63l-62 0c-23 0-43-13-54-31l-40 0c-52 0-94 42-94 93l63 0 0 282-125 0c0 154 126 281 281 281 155 0 281-127 281-281l-125 0 0-282 94 0c51 0 94 43 94 94l0 188c0 189-155 343-344 343z m-281-406l62 0 0-156-31 0c-17 0-31 14-31 31z m500 0l62 0 0-125c0-17-14-31-31-31l-31 0z" horiz-adv-x="1000" />

<glyph glyph-name="card" unicode="&#xe838;" d="M156 663c-51 0-93-43-93-94l0-438c0-51 42-93 93-93l688 0c51 0 94 42 94 93l0 438c0 51-43 94-94 94z m0-63l688 0c18 0 31-13 31-31l0-63-719 0 0-62 719 0 0-313c0-17-13-31-31-31l-688 0c-17 0-31 14-31 31l0 438c0 18 14 31 31 31z" horiz-adv-x="1000" />

<glyph glyph-name="share" unicode="&#xe839;" d="M500 725c-67 0-121-54-124-120-113-48-188-159-188-286 0-6-1-11 0-18-37-22-63-61-63-107 0-69 56-125 125-125 18 0 35 4 51 11 54-46 125-74 199-74 75 0 145 28 199 74 16-7 33-11 51-11 69 0 125 56 125 125 0 46-26 87-63 108 0 5 1 10 1 17 0 127-76 238-189 286-3 66-57 120-124 120z m0-62c35 0 63-28 63-63 0-35-28-62-63-62-35 0-62 27-62 62 0 35 27 63 62 63z m-110-121c21-39 62-67 110-67 48 0 89 28 110 67 84-40 140-126 140-223-69 0-125-56-125-125 0-28 10-54 25-74-41-32-95-51-150-51-55 0-109 19-150 51 15 20 25 46 25 74 0 69-56 125-125 125 0 97 56 183 140 223z m-140-286c35 0 63-27 63-62 0-35-28-63-63-63-35 0-62 28-62 63 0 35 27 62 62 62z m500 0c35 0 63-27 63-62 0-35-28-63-63-63-35 0-62 28-62 63 0 35 27 62 62 62z" horiz-adv-x="1000" />

<glyph glyph-name="order" unicode="&#xe83a;" d="M281 694l0-438 63 0 0 375 437 0 0-500c0-35-27-62-62-62-35 0-63 27-63 62l0 94-500 0 0-94c0-68 57-125 125-125l438 0c69 0 125 57 125 125l0 563z m125-188l0-62 63 0 0 62z m125 0l0-62 188 0 0 62z m-125-125l0-62 63 0 0 62z m125 0l0-62 188 0 0 62z m-312-218l375 0 0-32c0-23 7-44 17-62l-330 0c-35 0-62 27-62 62z" horiz-adv-x="1000" />

<glyph glyph-name="order-history" unicode="&#xe83b;" d="M281 694l0-438 63 0 0 375 437 0 0-250 63 0 0 313z m125-188l0-62 63 0 0 62z m125 0l0-62 188 0 0 62z m-125-125l0-62 63 0 0 62z m125 0l0-62 47 0 0 62z m94-31l0-62 31 0 0-63c0-50 25-97 63-125-38-28-63-75-63-125l0-63-31 0 0-62 375 0 0 62-31 0 0 63c0 50-25 97-63 125 38 28 63 75 63 125l0 63 31 0 0 62z m94-62l187 0 0-63c0-53-40-94-93-94-54 0-94 41-94 94z m-563-63l0-94c0-69 56-125 125-125l331 0c4 22 11 43 21 63l-352 0c-34 0-62 28-62 62l0 32 401 0c-7 20-11 41-11 62z m594 0c0 0 0-62 63-62 62 0 62 62 62 62z m63-156c53 0 93-41 93-94l0-63-31 0c0 35-28 63-62 63-35 0-63-28-63-63l-31 0 0 63c0 53 40 94 94 94z" horiz-adv-x="1000" />

<glyph glyph-name="reset" unicode="&#xe83c;" d="M500 756c-224 0-406-182-406-406 0-224 182-406 406-406 224 0 406 182 406 406l-62 0c0-190-154-344-344-344-190 0-344 154-344 344 0 190 154 344 344 344 121 0 227-62 288-156l-163 0 0-63 250 0 0 250-62 0 0-116c-75 90-187 147-313 147z" horiz-adv-x="1000" />

<glyph glyph-name="verify" unicode="&#xe83d;" d="M63 694l0-625 156 0 0-159 198 159 521 0 0 625z m62-63l750 0 0-500-480 0-114-91 0 91-156 0z m77-157l-44-44 48-49-48-48 44-44 48 48 48-48 44 44-48 48 48 49-44 44-48-49z m250 0l-44-44 48-49-48-48 44-44 48 48 48-48 44 44-48 48 48 49-44 44-48-49z m250 0l-44-44 48-49-48-48 44-44 48 48 48-48 44 44-48 48 48 49-44 44-48-49z" horiz-adv-x="1000" />

<glyph glyph-name="minus" unicode="&#xe83e;" d="M156 381l0-62 688 0 0 62z" horiz-adv-x="1000" />
</font>
</defs>
</svg>
